<svg width="589" height="103" viewBox="0 0 589 103" fill="none" xmlns="http://www.w3.org/2000/svg">
<path d="M33.048 38.744H74.008C71.7893 34.7333 68.6747 31.5333 64.664 29.144C60.7387 26.6693 56.344 25.432 51.48 25.432C47.896 25.432 44.5253 26.1147 41.368 27.48C38.2107 28.8453 35.4373 30.7227 33.048 33.112C30.6587 35.5013 28.7813 38.2747 27.416 41.432C26.0507 44.5893 25.368 47.96 25.368 51.544C25.368 55.128 26.0507 58.4987 27.416 61.656C28.7813 64.8133 30.6587 67.5867 33.048 69.976C35.4373 72.3653 38.2107 74.2427 41.368 75.608C44.5253 76.9733 47.896 77.656 51.48 77.656H91.16L65.56 103H51.48C44.3973 103 37.6987 101.677 31.384 99.032C25.1547 96.3013 19.6933 92.632 15 88.024C10.392 83.3307 6.72267 77.8693 3.992 71.64C1.34667 65.3253 0.024 58.6267 0.024 51.544C0.024 44.4613 1.34667 37.8053 3.992 31.576C6.72267 25.2613 10.392 19.8 15 15.192C19.6933 10.4987 25.1547 6.82933 31.384 4.184C37.6987 1.45333 44.3973 0.0879974 51.48 0.0879974C58.5627 0.0879974 65.2187 1.45333 71.448 4.184C77.7627 6.82933 83.224 10.4987 87.832 15.192C92.5253 19.8 96.1947 25.2613 98.84 31.576C101.571 37.8053 102.936 44.4613 102.936 51.544V64.088H58.648L33.048 38.744ZM155.13 46.68L190.714 103H160.762L140.282 70.232L119.802 103H89.85L125.178 46.68L96.506 0.599998H126.202L140.282 22.872L154.106 0.599998H184.058L155.13 46.68ZM237.239 103C230.156 103 223.5 101.677 217.271 99.032C211.127 96.3013 205.708 92.632 201.015 88.024C196.407 83.3307 192.738 77.912 190.007 71.768C187.362 65.5387 186.039 58.8827 186.039 51.8C186.039 44.8027 187.362 38.1893 190.007 31.96C192.738 25.7307 196.407 20.312 201.015 15.704C205.708 11.0107 211.127 7.34133 217.271 4.696C223.5 1.96533 230.156 0.599998 237.239 0.599998C244.236 0.599998 250.85 1.96533 257.079 4.696C263.308 7.34133 268.727 11.0107 273.335 15.704C278.028 20.312 281.698 25.7307 284.343 31.96C287.074 38.1893 288.439 44.8027 288.439 51.8C288.439 58.8827 287.074 65.5387 284.343 71.768C281.698 77.912 278.028 83.3307 273.335 88.024C268.727 92.632 263.308 96.3013 257.079 99.032C250.85 101.677 244.236 103 237.239 103ZM237.239 26.2C233.655 26.2 230.284 26.8827 227.127 28.248C223.97 29.6133 221.239 31.448 218.935 33.752C216.631 36.056 214.796 38.7867 213.431 41.944C212.066 45.016 211.383 48.3013 211.383 51.8C211.383 55.384 212.066 58.7547 213.431 61.912C214.796 65.0693 216.631 67.8 218.935 70.104C221.239 72.408 223.97 74.2427 227.127 75.608C230.284 76.9733 233.655 77.656 237.239 77.656C240.738 77.656 244.023 76.9733 247.095 75.608C250.252 74.2427 252.983 72.408 255.287 70.104C257.591 67.8 259.426 65.0693 260.791 61.912C262.156 58.7547 262.839 55.384 262.839 51.8C262.839 48.3013 262.156 45.016 260.791 41.944C259.426 38.7867 257.591 36.056 255.287 33.752C252.983 31.448 250.252 29.6133 247.095 28.248C244.023 26.8827 240.738 26.2 237.239 26.2ZM345.677 25.944H332.621V103H307.277V25.944H282.701V0.599998H371.021L345.677 25.944ZM383.279 0.599998V103H357.935V25.688L383.279 0.599998ZM439.114 103C432.031 103 425.375 101.677 419.146 99.032C413.002 96.3013 407.583 92.632 402.89 88.024C398.282 83.3307 394.613 77.912 391.882 71.768C389.237 65.5387 387.914 58.8827 387.914 51.8C387.914 44.8027 389.237 38.1893 391.882 31.96C394.613 25.7307 398.282 20.312 402.89 15.704C407.583 11.0107 413.002 7.34133 419.146 4.696C425.375 1.96533 432.031 0.599998 439.114 0.599998C446.111 0.599998 452.725 1.96533 458.954 4.696C465.183 7.34133 470.602 11.0107 475.21 15.704C479.903 20.312 483.573 25.7307 486.218 31.96C488.949 38.1893 490.314 44.8027 490.314 51.8C490.314 58.8827 488.949 65.5387 486.218 71.768C483.573 77.912 479.903 83.3307 475.21 88.024C470.602 92.632 465.183 96.3013 458.954 99.032C452.725 101.677 446.111 103 439.114 103ZM439.114 26.2C435.53 26.2 432.159 26.8827 429.002 28.248C425.845 29.6133 423.114 31.448 420.81 33.752C418.506 36.056 416.671 38.7867 415.306 41.944C413.941 45.016 413.258 48.3013 413.258 51.8C413.258 55.384 413.941 58.7547 415.306 61.912C416.671 65.0693 418.506 67.8 420.81 70.104C423.114 72.408 425.845 74.2427 429.002 75.608C432.159 76.9733 435.53 77.656 439.114 77.656C442.613 77.656 445.898 76.9733 448.97 75.608C452.127 74.2427 454.858 72.408 457.162 70.104C459.466 67.8 461.301 65.0693 462.666 61.912C464.031 58.7547 464.714 55.384 464.714 51.8C464.714 48.3013 464.031 45.016 462.666 41.944C461.301 38.7867 459.466 36.056 457.162 33.752C454.858 31.448 452.127 29.6133 448.97 28.248C445.898 26.8827 442.613 26.2 439.114 26.2ZM588.512 103H563.424V47.96C563.424 44.888 562.827 42.0293 561.632 39.384C560.523 36.6533 558.944 34.3067 556.896 32.344C554.933 30.3813 552.587 28.8453 549.856 27.736C547.211 26.5413 544.395 25.944 541.408 25.944C538.336 25.944 535.435 26.5413 532.704 27.736C530.059 28.8453 527.712 30.3813 525.664 32.344C523.616 34.3067 521.995 36.6533 520.8 39.384C519.691 42.0293 519.136 44.888 519.136 47.96V103H494.048V47.96C494.048 41.4747 495.285 35.3733 497.76 29.656C500.235 23.8533 503.605 18.8187 507.872 14.552C512.224 10.2 517.259 6.78666 522.976 4.312C528.693 1.83733 534.837 0.599998 541.408 0.599998C547.893 0.599998 553.995 1.83733 559.712 4.312C565.515 6.78666 570.507 10.2 574.688 14.552C578.955 18.8187 582.325 23.8533 584.8 29.656C587.275 35.3733 588.512 41.4747 588.512 47.96V103Z" fill="#7F56D9"/>
</svg>
