<svg width="135" height="50" viewBox="0 0 135 50" fill="none" xmlns="http://www.w3.org/2000/svg">
<path fill-rule="evenodd" clip-rule="evenodd" d="M22.3799 0.758299C21.7522 0.789185 20.3177 0.997033 19.4538 1.18235C19.2239 1.23159 18.8268 1.31356 18.5713 1.36442C17.8036 1.51769 15.6478 2.24016 14.8556 2.60987C13.7179 3.14075 12.1996 3.8955 11.9295 4.06456C7.07151 7.10516 3.5509 11.1938 1.74508 15.8916C1.56835 16.3514 1.3691 16.853 1.30222 17.0063C1.05025 17.5829 0.477106 19.7585 0.323138 20.722C0.266009 21.0796 0.173581 21.6439 0.117846 21.976C-0.0823366 23.1676 -0.014525 27.5403 0.223511 28.8036C0.771109 31.7095 1.75948 34.7301 2.63963 36.1885C2.68584 36.2652 2.99517 36.7947 3.32703 37.3653C3.91875 38.3829 4.63518 39.4453 5.16397 40.09C5.31074 40.2688 5.54483 40.5566 5.6844 40.7296C6.02624 41.1536 8.19713 43.3248 8.59354 43.6392C8.76795 43.7774 9.11629 44.0635 9.36757 44.275C9.61907 44.4864 9.99134 44.7704 10.1945 44.906C11.1244 45.5261 12.0175 46.0764 12.5661 46.3674C12.8947 46.5418 13.2098 46.7197 13.2665 46.7627C13.5528 46.9805 15.8544 47.9129 16.8528 48.2155C17.0827 48.2852 17.5634 48.4327 17.9211 48.543C18.2787 48.6533 18.8012 48.7768 19.0822 48.8177C19.3632 48.8586 19.7603 48.9371 19.9647 48.9923C20.169 49.0476 21.026 49.1614 21.869 49.2452C25.3647 49.5927 29.4257 49.1182 32.2729 48.0297C32.4517 47.9612 32.8906 47.7938 33.2482 47.6572C34.9015 47.0263 37.3199 45.7195 38.3566 44.8972C38.6302 44.68 39.0935 44.3352 39.3863 44.1308C40.5224 43.338 44.1473 39.4899 44.4183 38.7895C44.4478 38.7129 44.6231 38.4203 44.8077 38.1393C45.2373 37.4855 45.304 37.3722 45.6556 36.6995C45.8156 36.3929 45.9788 36.1003 46.0181 36.0492C46.1969 35.8172 47.0924 33.627 47.3855 32.7051C47.9159 31.0365 48.0606 30.4111 48.45 28.1069C48.5801 27.3375 48.5794 22.8827 48.4491 22.0225C48.1569 20.0938 48.0759 19.7064 47.672 18.3068C47.476 17.6273 47.1484 16.6812 46.8355 15.8916C46.7345 15.6361 46.5963 15.2808 46.529 15.102C46.4245 14.8254 46.1121 14.2293 45.2877 12.7333C45.1084 12.4081 44.5913 11.629 44.1159 10.9683C43.9322 10.7129 43.7111 10.3993 43.6247 10.2716C43.5383 10.1439 43.4389 9.99759 43.4037 9.9465C42.468 8.59445 39.6146 6.00253 37.616 4.68903C37.3085 4.48699 36.9941 4.27938 36.9175 4.22782C36.6128 4.02276 34.4068 2.90411 33.6662 2.57922C33.0731 2.31912 31.7262 1.83631 31.1426 1.67468C29.69 1.27246 29.2105 1.15983 28.7446 1.11152C28.4627 1.08249 27.9299 0.999353 27.5605 0.92713C26.8965 0.797313 23.6992 0.693042 22.3799 0.758299ZM25.3989 9.99016C31.2624 10.7526 34.7248 13.4381 35.5754 17.8834C35.9542 19.862 35.5903 21.7285 34.5378 23.2071C34.1393 23.767 34.1349 23.7356 34.7043 24.4186C38.1518 28.5537 38.4314 34.1442 35.3439 37.208C34.5431 38.0027 33.2979 38.8404 32.5685 39.0752C32.3804 39.1358 32.1846 39.2157 32.1335 39.2531C31.9484 39.3878 30.5316 39.7168 29.5395 39.8555C25.8106 40.3764 21.7868 39.2215 18.6435 36.728L18.0655 36.2694L18.0397 37.6456L18.014 39.0218H16.1561H14.2983L14.2741 34.9916C14.2481 30.6687 14.2381 30.7604 14.7428 30.6798C14.9069 30.6538 15.1877 30.5904 15.3665 30.5391C15.5453 30.4877 16.047 30.3579 16.4812 30.2509C16.9155 30.1436 17.3834 30.0191 17.5209 29.9741C17.7573 29.8965 18.0604 30.0656 18.0604 30.2748C18.0604 30.423 19.0996 31.9134 19.5502 32.4113C20.0738 32.9903 21.3892 34.0841 21.9426 34.4006C26.3382 36.9152 31.758 36.4586 33.2471 33.4482C33.6672 32.599 33.6442 30.4638 33.2032 29.361C32.6426 27.9595 32.2898 27.3301 31.6015 26.5045C31.1849 26.0048 31.1231 25.9899 30.5444 26.2535C30.0732 26.4683 29.2026 26.7398 28.5107 26.8877C28.2553 26.9423 27.8501 27.0298 27.6104 27.0826C27.0674 27.2015 23.6567 27.2084 22.976 27.0918C22.6992 27.0445 22.1802 26.956 21.8225 26.8951C20.1953 26.6188 18.7515 26.1764 17.5421 25.5837C11.9307 22.8344 13.6079 16.6289 19.8908 16.8932C21.326 16.9536 23.5958 17.3426 24.1204 17.6182C24.2092 17.6649 24.3336 17.703 24.397 17.703C24.5001 17.703 25.5178 18.0565 26.0027 18.2606C26.1048 18.3035 26.3766 18.4136 26.6065 18.5054C27.5226 18.8702 29.3944 19.8799 30.3739 20.5378C31.5641 21.3372 31.4851 21.31 31.6577 20.9763C32.1867 19.9531 31.9577 18.0123 31.1654 16.805C29.7862 14.703 26.8626 13.6318 22.4728 13.6199C19.8583 13.613 16.7404 14.1594 15.3798 14.863C14.8168 15.154 14.769 15.1101 14.2957 13.8712C14.0565 13.2453 13.7607 12.4715 13.6383 12.1518C13.3687 11.4472 13.3612 11.2934 13.596 11.2934C13.6952 11.2934 13.7992 11.2565 13.8268 11.2117C13.8547 11.1666 13.9722 11.1081 14.0879 11.0814C14.2035 11.0547 14.779 10.9089 15.3665 10.7572C18.7111 9.89425 22.4572 9.60791 25.3989 9.99016ZM18.83 20.716C16.8182 21.2034 18.9777 22.6874 22.4263 23.1873C22.8095 23.2429 23.3248 23.3274 23.5714 23.3752C24.2602 23.509 26.858 23.4816 27.3466 23.3353L27.7618 23.2113L26.4177 22.5559C25.1915 21.9582 23.8002 21.415 22.8443 21.1607C22.64 21.1063 22.2993 21.0162 22.087 20.9605C20.8934 20.6472 19.5346 20.545 18.83 20.716Z" fill="#7F56D9"/>
<path d="M121.245 37.2415C119.222 37.2415 117.521 36.8817 116.14 36.1622C114.759 35.4621 113.65 34.5286 112.814 33.3617C111.997 32.1949 111.404 30.921 111.035 29.5403C110.665 28.1595 110.48 26.7884 110.48 25.4271C110.48 23.8129 110.743 22.2182 111.268 20.6429C111.793 19.0677 112.581 17.6383 113.631 16.3547C114.701 15.0712 116.023 14.0405 117.598 13.2626C119.193 12.4847 121.05 12.0957 123.17 12.0957C124.959 12.0957 126.525 12.3582 127.867 12.8833C129.209 13.389 130.356 14.0113 131.309 14.7503C132.281 15.4699 133.059 16.1505 133.643 16.7923L129.996 20.7305C129.452 20.0887 128.868 19.4858 128.246 18.9218C127.643 18.3578 126.923 17.9008 126.087 17.5508C125.251 17.2007 124.22 17.0257 122.995 17.0257C121.673 17.0257 120.535 17.2688 119.582 17.755C118.629 18.2217 117.851 18.8538 117.248 19.6511C116.645 20.4485 116.198 21.3431 115.906 22.3349C115.634 23.3267 115.498 24.3477 115.498 25.3979C115.498 26.6425 115.702 27.79 116.111 28.8401C116.538 29.8903 117.17 30.7363 118.007 31.3781C118.862 32.0198 119.922 32.3407 121.186 32.3407C122.742 32.3407 124.026 31.9809 125.037 31.2614C126.048 30.5418 126.748 29.5111 127.137 28.1692C126.301 28.2275 125.494 28.3053 124.716 28.4026C123.958 28.4804 123.277 28.5679 122.674 28.6651L122.178 23.9393C123.326 23.6865 124.648 23.5018 126.146 23.3851C127.662 23.2489 129.111 23.1809 130.492 23.1809C132.398 23.1809 133.827 23.2976 134.78 23.5309L134.664 28.3151C134.255 28.1984 133.604 28.1108 132.709 28.0525C132.709 28.4804 132.709 28.9276 132.709 29.3944C132.729 29.8611 132.738 30.3376 132.738 30.8238C132.738 32.1657 132.719 33.4881 132.68 34.7911C132.641 36.0941 132.602 37.1346 132.563 37.9125L127.575 37.7958C127.594 37.543 127.624 37.154 127.662 36.6289C127.721 36.1038 127.779 35.5107 127.837 34.8495C127.176 35.5496 126.311 36.1233 125.241 36.5706C124.191 37.0179 122.859 37.2415 121.245 37.2415Z" fill="#7F56D9"/>
<path d="M82.1969 38.0001C82.1385 36.0748 82.1094 34.2273 82.1094 32.4575C82.1094 29.2681 82.2066 26.3801 82.4011 23.7936C82.5956 21.2071 82.8776 19.0095 83.2471 17.2008C83.4221 16.3646 83.6652 15.5575 83.9763 14.7796C84.307 14.0017 84.764 13.3697 85.3474 12.8835C85.9503 12.3778 86.7379 12.125 87.7103 12.125C88.6632 12.125 89.4703 12.3778 90.1315 12.8835C90.7927 13.3697 91.3275 13.9628 91.7359 14.6629C92.1638 15.363 92.475 16.034 92.6694 16.6757C93.1751 18.1927 93.6029 19.7096 93.953 21.2265C94.303 22.7434 94.6142 24.1923 94.8865 25.5731C95.0809 24.5618 95.3046 23.5019 95.5574 22.3934C95.8102 21.2654 96.063 20.2055 96.3159 19.2137C96.5687 18.2024 96.802 17.3661 97.016 16.7049C98.0078 13.6516 99.5344 12.125 101.596 12.125C102.743 12.125 103.716 12.5431 104.513 13.3794C105.31 14.1962 105.894 15.3825 106.263 16.9383C106.438 17.6384 106.613 18.6594 106.788 20.0013C106.983 21.3432 107.158 22.9379 107.313 24.7854C107.489 26.6135 107.634 28.6361 107.751 30.8531C107.887 33.0701 107.994 35.4233 108.072 37.9126L102.938 37.7959C102.938 36.7652 102.909 35.5691 102.85 34.2078C102.811 32.8465 102.743 31.4365 102.646 29.9779C102.568 28.4999 102.471 27.0608 102.354 25.6606C102.257 24.2603 102.15 22.9962 102.033 21.8683C101.936 20.7403 101.839 19.8457 101.742 19.1845C101.645 18.5038 101.557 18.1635 101.479 18.1635C101.46 18.1635 101.353 18.5136 101.158 19.2137C100.983 19.8943 100.76 20.8084 100.487 21.9558C100.235 23.1032 99.9526 24.3673 99.6414 25.7481C99.3302 27.1289 99.0191 28.5194 98.7079 29.9196C98.4162 31.3004 98.1537 32.5839 97.9203 33.7702C97.6869 34.9371 97.5022 35.89 97.366 36.629L92.7861 36.7457C92.5527 35.6567 92.2708 34.4606 91.9401 33.1576C91.629 31.8352 91.2984 30.4933 90.9483 29.132C90.6177 27.7512 90.2871 26.4288 89.9565 25.1647C89.6259 23.8811 89.3147 22.7337 89.023 21.7224C88.7507 20.7111 88.5271 19.9138 88.3521 19.3304C88.177 18.7275 88.0701 18.426 88.0312 18.426C87.9534 18.426 87.8659 18.8539 87.7686 19.7096C87.6908 20.5458 87.6131 21.6835 87.5353 23.1226C87.4575 24.5618 87.3894 26.1857 87.3311 27.9943C87.2922 29.8029 87.2727 31.6699 87.2727 33.5952C87.2727 34.5093 87.2727 35.3455 87.2727 36.104C87.2922 36.8624 87.3116 37.4847 87.3311 37.9709L82.1969 38.0001Z" fill="#7F56D9"/>
<path d="M59.2332 37.8834C59.2137 37.6695 59.204 37.4361 59.204 37.1833C59.204 36.9305 59.204 36.6388 59.204 36.3082C59.204 35.4719 59.2234 34.4801 59.2623 33.3327C59.3012 32.1658 59.3596 30.9309 59.4374 29.6279C59.5152 28.3055 59.5929 26.983 59.6707 25.6606C59.7485 24.3187 59.8263 23.0351 59.9041 21.8099C60.0013 20.5847 60.0889 19.4859 60.1667 18.5136C59.7388 18.6497 59.3596 18.7761 59.029 18.8928L58.2705 13.992C60.4681 13.3696 62.5101 12.9029 64.3965 12.5917C66.3024 12.2806 68.0235 12.125 69.5598 12.125C72.6909 12.125 75.083 12.7182 76.736 13.9045C78.3891 15.0908 79.2156 16.8119 79.2156 19.0678C79.2156 20.3514 78.9336 21.4307 78.3696 22.3059C77.8056 23.1615 77.0083 23.8714 75.9776 24.4354C78.5057 25.7189 79.7698 27.8095 79.7698 30.7072C79.7698 31.9908 79.5267 33.0701 79.0406 33.9453C78.5738 34.801 77.9709 35.4914 77.2319 36.0165C76.4929 36.5415 75.7053 36.9305 74.869 37.1833C74.0522 37.4556 73.2743 37.6306 72.5353 37.7084C71.8158 37.8056 71.2518 37.8543 70.8434 37.8543C69.8321 37.8543 68.7528 37.757 67.6054 37.5625C66.458 37.3681 65.3397 37.0763 64.2506 36.6874C64.2506 37.0763 64.2506 37.4459 64.2506 37.7959L59.2332 37.8834ZM69.6765 16.9966C68.9764 16.9966 68.2374 17.0355 67.4595 17.1133C66.701 17.1717 65.9426 17.2689 65.1841 17.405C65.0674 18.8247 64.9508 20.4778 64.8341 22.3642C65.0869 22.3836 65.3397 22.3934 65.5925 22.3934C65.8648 22.3934 66.1371 22.3934 66.4093 22.3934C71.5435 22.3934 74.1106 21.3432 74.1106 19.2428C74.1106 18.5427 73.7119 17.9982 72.9146 17.6092C72.1367 17.2008 71.0573 16.9966 69.6765 16.9966ZM67.0803 27.0025C66.6719 27.0025 66.2538 27.0025 65.8259 27.0025C65.4175 27.0025 64.9994 27.0122 64.5715 27.0316C64.5326 27.8873 64.4937 28.743 64.4548 29.5987C64.4354 30.4544 64.4062 31.3004 64.3673 32.1366C65.4564 32.4673 66.526 32.7103 67.5762 32.8659C68.6264 33.0021 69.5307 33.0701 70.2891 33.0701C71.9033 33.0701 73.0604 32.8757 73.7605 32.4867C74.4606 32.0783 74.8107 31.4171 74.8107 30.503C74.8107 29.3751 74.1398 28.5097 72.7979 27.9068C71.4754 27.3039 69.5696 27.0025 67.0803 27.0025Z" fill="#7F56D9"/>
</svg>
