<svg width="112" height="41" viewBox="0 0 112 41" fill="none" xmlns="http://www.w3.org/2000/svg">
<path fill-rule="evenodd" clip-rule="evenodd" d="M18.8968 0.734242C18.3804 0.759653 17.2002 0.930654 16.4894 1.08312C16.3003 1.12363 15.9736 1.19107 15.7634 1.23291C15.1318 1.35901 13.3581 1.9534 12.7064 2.25757C11.7704 2.69434 10.5213 3.31528 10.2991 3.45438C6.30227 5.95594 3.40578 9.31976 1.92009 13.1847C1.7747 13.563 1.61077 13.9757 1.55574 14.1018C1.34844 14.5762 0.876901 16.3661 0.750228 17.1588C0.703227 17.453 0.627184 17.9173 0.581329 18.1905C0.416635 19.1709 0.472425 22.7683 0.668262 23.8077C1.11878 26.1985 1.93194 28.6836 2.65606 29.8835C2.69408 29.9465 2.94857 30.3821 3.2216 30.8516C3.70842 31.6888 4.29785 32.5629 4.73289 33.0933C4.85364 33.2404 5.04623 33.4771 5.16106 33.6195C5.4423 33.9683 7.22834 35.7546 7.55448 36.0133C7.69797 36.1269 7.98456 36.3623 8.19129 36.5364C8.39821 36.7103 8.70448 36.9439 8.87166 37.0555C9.63666 37.5656 10.3715 38.0184 10.8228 38.2578C11.0931 38.4013 11.3524 38.5477 11.399 38.583C11.6346 38.7623 13.5282 39.5294 14.3496 39.7783C14.5387 39.8356 14.9342 39.957 15.2284 40.0477C15.5227 40.1385 15.9526 40.2401 16.1837 40.2737C16.4149 40.3074 16.7416 40.3719 16.9098 40.4174C17.0779 40.4629 17.7829 40.5565 18.4765 40.6255C21.3525 40.9113 24.6936 40.521 27.036 39.6255C27.1831 39.5691 27.5442 39.4313 27.8385 39.319C29.1986 38.7999 31.1883 37.7248 32.0412 37.0482C32.2663 36.8696 32.6475 36.5859 32.8884 36.4177C33.8231 35.7655 36.8053 32.5996 37.0283 32.0233C37.0526 31.9603 37.1968 31.7196 37.3487 31.4884C37.7022 30.9505 37.757 30.8573 38.0463 30.3038C38.1779 30.0516 38.3122 29.8109 38.3445 29.7688C38.4916 29.578 39.2284 27.7761 39.4695 27.0175C39.9059 25.6448 40.0249 25.1302 40.3453 23.2345C40.4523 22.6016 40.4517 18.9364 40.3445 18.2287C40.1042 16.642 40.0375 16.3233 39.7053 15.1718C39.544 14.6127 39.2744 13.8343 39.0171 13.1847C38.9339 12.9746 38.8203 12.6822 38.7649 12.5351C38.6789 12.3076 38.4219 11.8171 37.7436 10.5863C37.5961 10.3188 37.1706 9.67781 36.7795 9.13424C36.6284 8.92407 36.4465 8.66614 36.3755 8.56105C36.3044 8.45597 36.2226 8.3356 36.1936 8.29357C35.4238 7.18121 33.0762 5.04878 31.4319 3.96814C31.179 3.80192 30.9203 3.63111 30.8572 3.58869C30.6066 3.41999 28.7917 2.49965 28.1824 2.23235C27.6944 2.01836 26.5863 1.62115 26.1061 1.48817C24.911 1.15725 24.5165 1.06459 24.1332 1.02485C23.9013 1.00096 23.463 0.932563 23.159 0.873143C22.6128 0.76634 19.9822 0.680554 18.8968 0.734242ZM21.3806 8.32949C26.2047 8.95674 29.0532 11.1662 29.7531 14.8235C30.0647 16.4513 29.7653 17.9869 28.8994 19.2033C28.5716 19.664 28.5679 19.6382 29.0364 20.2001C31.8727 23.6021 32.1028 28.2015 29.5626 30.7222C28.9038 31.376 27.8794 32.0652 27.2792 32.2583C27.1245 32.3082 26.9634 32.3739 26.9214 32.4047C26.7691 32.5155 25.6034 32.7862 24.7872 32.9003C21.7194 33.3289 18.4088 32.3787 15.8228 30.3273L15.3473 29.9499L15.3261 31.0822L15.3049 32.2144H13.7764H12.2479L12.228 28.8987C12.2066 25.3421 12.1984 25.4176 12.6136 25.3513C12.7487 25.3299 12.9797 25.2777 13.1268 25.2355C13.2739 25.1933 13.6866 25.0865 14.0439 24.9984C14.4011 24.9101 14.7861 24.8077 14.8992 24.7707C15.0937 24.7069 15.3431 24.8459 15.3431 25.0181C15.3431 25.14 16.1981 26.3662 16.5687 26.7759C16.9996 27.2522 18.0817 28.1521 18.537 28.4125C22.1534 30.4813 26.6124 30.1057 27.8375 27.6289C28.1831 26.9302 28.1642 25.1736 27.8014 24.2663C27.3402 23.1132 27.05 22.5954 26.4837 21.9162C26.1409 21.5051 26.0901 21.4928 25.6139 21.7097C25.2263 21.8864 24.51 22.1098 23.9408 22.2315C23.7307 22.2764 23.3973 22.3484 23.2001 22.3918C22.7534 22.4896 19.9473 22.4953 19.3873 22.3994C19.1595 22.3604 18.7325 22.2876 18.4383 22.2376C17.0995 22.0102 15.9117 21.6462 14.9166 21.1587C10.3 18.8967 11.6799 13.7913 16.849 14.0088C18.0298 14.0585 19.8972 14.3785 20.3288 14.6053C20.4018 14.6437 20.5042 14.675 20.5564 14.675C20.6412 14.675 21.4784 14.9658 21.8774 15.1337C21.9614 15.1691 22.185 15.2597 22.3741 15.3351C23.1279 15.6353 24.6678 16.466 25.4737 17.0073C26.4529 17.6649 26.3879 17.6426 26.5299 17.368C26.9651 16.5262 26.7767 14.9295 26.1248 13.9362C24.9901 12.2069 22.5849 11.3255 18.9732 11.3158C16.8223 11.31 14.2571 11.7596 13.1377 12.3385C12.6745 12.5779 12.6352 12.5418 12.2458 11.5225C12.049 11.0076 11.8056 10.371 11.7049 10.1079C11.4831 9.5282 11.477 9.40172 11.6701 9.40172C11.7517 9.40172 11.8373 9.37134 11.86 9.33447C11.883 9.2974 11.9796 9.24926 12.0748 9.22728C12.1699 9.20531 12.6434 9.08533 13.1268 8.96056C15.8784 8.25058 18.9604 8.015 21.3806 8.32949ZM15.9763 17.1538C14.3211 17.5549 16.0978 18.7757 18.935 19.1871C19.2503 19.2328 19.6742 19.3023 19.8771 19.3417C20.4438 19.4517 22.581 19.4292 22.983 19.3088L23.3246 19.2068L22.2188 18.6676C21.21 18.1758 20.0653 17.7289 19.2789 17.5197C19.1108 17.475 18.8305 17.4009 18.6559 17.355C17.6738 17.0973 16.5559 17.0132 15.9763 17.1538Z" fill="white"/>
<path d="M100.234 30.7495C98.5699 30.7495 97.1699 30.4535 96.0339 29.8615C94.8979 29.2855 93.9859 28.5175 93.2979 27.5575C92.6259 26.5975 92.1379 25.5495 91.8339 24.4135C91.5299 23.2775 91.3779 22.1495 91.3779 21.0295C91.3779 19.7015 91.5939 18.3895 92.0259 17.0935C92.4579 15.7975 93.1059 14.6215 93.9699 13.5655C94.8499 12.5095 95.9379 11.6615 97.2339 11.0215C98.5459 10.3815 100.074 10.0615 101.818 10.0615C103.29 10.0615 104.578 10.2775 105.682 10.7095C106.786 11.1255 107.73 11.6375 108.514 12.2455C109.314 12.8375 109.954 13.3975 110.434 13.9255L107.434 17.1655C106.986 16.6375 106.506 16.1415 105.994 15.6775C105.498 15.2135 104.906 14.8375 104.218 14.5495C103.53 14.2615 102.682 14.1175 101.674 14.1175C100.586 14.1175 99.6499 14.3175 98.8659 14.7175C98.0819 15.1015 97.4419 15.6215 96.9459 16.2775C96.4499 16.9335 96.0819 17.6695 95.8419 18.4855C95.6179 19.3015 95.5059 20.1415 95.5059 21.0055C95.5059 22.0295 95.6739 22.9735 96.0099 23.8375C96.3619 24.7015 96.8819 25.3975 97.5699 25.9255C98.2739 26.4535 99.1459 26.7175 100.186 26.7175C101.466 26.7175 102.522 26.4215 103.354 25.8295C104.186 25.2375 104.762 24.3895 105.082 23.2855C104.394 23.3335 103.73 23.3975 103.09 23.4775C102.466 23.5415 101.906 23.6135 101.41 23.6935L101.002 19.8055C101.946 19.5975 103.034 19.4455 104.266 19.3495C105.514 19.2375 106.706 19.1815 107.842 19.1815C109.41 19.1815 110.586 19.2775 111.37 19.4695L111.274 23.4055C110.938 23.3095 110.402 23.2375 109.666 23.1895C109.666 23.5415 109.666 23.9095 109.666 24.2935C109.682 24.6775 109.69 25.0695 109.69 25.4695C109.69 26.5735 109.674 27.6615 109.642 28.7335C109.61 29.8055 109.578 30.6615 109.546 31.3015L105.442 31.2055C105.458 30.9975 105.482 30.6775 105.514 30.2455C105.562 29.8135 105.61 29.3255 105.658 28.7815C105.114 29.3575 104.402 29.8295 103.522 30.1975C102.658 30.5655 101.562 30.7495 100.234 30.7495Z" fill="white"/>
<path d="M68.1081 31.3739C68.0601 29.7899 68.0361 28.2699 68.0361 26.8139C68.0361 24.1899 68.1161 21.8139 68.2761 19.6859C68.4361 17.5579 68.6681 15.7499 68.9721 14.2619C69.1161 13.5739 69.3161 12.9099 69.5721 12.2699C69.8441 11.6299 70.2201 11.1099 70.7001 10.7099C71.1961 10.2939 71.8441 10.0859 72.6441 10.0859C73.4281 10.0859 74.0921 10.2939 74.6361 10.7099C75.1801 11.1099 75.6201 11.5979 75.9561 12.1739C76.3081 12.7499 76.5641 13.3019 76.7241 13.8299C77.1401 15.0779 77.4921 16.3259 77.7801 17.5739C78.0681 18.8219 78.3241 20.0139 78.5481 21.1499C78.7081 20.3179 78.8921 19.4459 79.1001 18.5339C79.3081 17.6059 79.5161 16.7339 79.7241 15.9179C79.9321 15.0859 80.1241 14.3979 80.3001 13.8539C81.1161 11.3419 82.3721 10.0859 84.0681 10.0859C85.0121 10.0859 85.8121 10.4299 86.4681 11.1179C87.1241 11.7899 87.6041 12.7659 87.9081 14.0459C88.0521 14.6219 88.1961 15.4619 88.3401 16.5659C88.5001 17.6699 88.6441 18.9819 88.7721 20.5019C88.9161 22.0059 89.0361 23.6699 89.1321 25.4939C89.2441 27.3179 89.3321 29.2539 89.3961 31.3019L85.1721 31.2059C85.1721 30.3579 85.1481 29.3739 85.1001 28.2539C85.0681 27.1339 85.0121 25.9739 84.9321 24.7739C84.8681 23.5579 84.7881 22.3739 84.6921 21.2219C84.6121 20.0699 84.5241 19.0299 84.4281 18.1019C84.3481 17.1739 84.2681 16.4379 84.1881 15.8939C84.1081 15.3339 84.0361 15.0539 83.9721 15.0539C83.9561 15.0539 83.8681 15.3419 83.7081 15.9179C83.5641 16.4779 83.3801 17.2299 83.1561 18.1739C82.9481 19.1179 82.7161 20.1579 82.4601 21.2939C82.2041 22.4299 81.9481 23.5739 81.6921 24.7259C81.4521 25.8619 81.2361 26.9179 81.0441 27.8939C80.8521 28.8539 80.7001 29.6379 80.5881 30.2459L76.8201 30.3419C76.6281 29.4459 76.3961 28.4619 76.1241 27.3899C75.8681 26.3019 75.5961 25.1979 75.3081 24.0779C75.0361 22.9419 74.7641 21.8539 74.4921 20.8139C74.2201 19.7579 73.9641 18.8139 73.7241 17.9819C73.5001 17.1499 73.3161 16.4939 73.1721 16.0139C73.0281 15.5179 72.9401 15.2699 72.9081 15.2699C72.8441 15.2699 72.7721 15.6219 72.6921 16.3259C72.6281 17.0139 72.5641 17.9499 72.5001 19.1339C72.4361 20.3179 72.3801 21.6539 72.3321 23.1419C72.3001 24.6299 72.2841 26.1659 72.2841 27.7499C72.2841 28.5019 72.2841 29.1899 72.2841 29.8139C72.3001 30.4379 72.3161 30.9499 72.3321 31.3499L68.1081 31.3739Z" fill="white"/>
<path d="M49.2168 31.2779C49.2008 31.1019 49.1928 30.9099 49.1928 30.7019C49.1928 30.4939 49.1928 30.2539 49.1928 29.9819C49.1928 29.2939 49.2088 28.4779 49.2408 27.5339C49.2728 26.5739 49.3208 25.5579 49.3848 24.4859C49.4488 23.3979 49.5128 22.3099 49.5768 21.2219C49.6408 20.1179 49.7048 19.0619 49.7688 18.0539C49.8488 17.0459 49.9208 16.1419 49.9848 15.3419C49.6328 15.4539 49.3208 15.5579 49.0488 15.6539L48.4248 11.6219C50.2328 11.1099 51.9128 10.7259 53.4648 10.4699C55.0328 10.2139 56.4488 10.0859 57.7128 10.0859C60.2888 10.0859 62.2568 10.5739 63.6168 11.5499C64.9768 12.5259 65.6568 13.9419 65.6568 15.7979C65.6568 16.8539 65.4248 17.7419 64.9608 18.4619C64.4968 19.1659 63.8408 19.7499 62.9928 20.2139C65.0728 21.2699 66.1128 22.9899 66.1128 25.3739C66.1128 26.4299 65.9128 27.3179 65.5128 28.0379C65.1288 28.7419 64.6328 29.3099 64.0248 29.7419C63.4168 30.1739 62.7688 30.4939 62.0808 30.7019C61.4088 30.9259 60.7688 31.0699 60.1608 31.1339C59.5688 31.2139 59.1048 31.2539 58.7688 31.2539C57.9368 31.2539 57.0488 31.1739 56.1048 31.0139C55.1608 30.8539 54.2408 30.6139 53.3448 30.2939C53.3448 30.6139 53.3448 30.9179 53.3448 31.2059L49.2168 31.2779ZM57.8088 14.0939C57.2328 14.0939 56.6248 14.1259 55.9848 14.1899C55.3608 14.2379 54.7368 14.3179 54.1128 14.4299C54.0168 15.5979 53.9208 16.9579 53.8248 18.5099C54.0328 18.5259 54.2408 18.5339 54.4488 18.5339C54.6728 18.5339 54.8968 18.5339 55.1208 18.5339C59.3448 18.5339 61.4568 17.6699 61.4568 15.9419C61.4568 15.3659 61.1288 14.9179 60.4728 14.5979C59.8328 14.2619 58.9448 14.0939 57.8088 14.0939ZM55.6728 22.3259C55.3368 22.3259 54.9928 22.3259 54.6408 22.3259C54.3048 22.3259 53.9608 22.3339 53.6088 22.3499C53.5768 23.0539 53.5448 23.7579 53.5128 24.4619C53.4968 25.1659 53.4728 25.8619 53.4408 26.5499C54.3368 26.8219 55.2168 27.0219 56.0808 27.1499C56.9448 27.2619 57.6888 27.3179 58.3128 27.3179C59.6408 27.3179 60.5928 27.1579 61.1688 26.8379C61.7448 26.5019 62.0328 25.9579 62.0328 25.2059C62.0328 24.2779 61.4808 23.5659 60.3768 23.0699C59.2888 22.5739 57.7208 22.3259 55.6728 22.3259Z" fill="white"/>
</svg>
